<svg width="48" height="47" viewBox="0 0 48 47" fill="none" xmlns="http://www.w3.org/2000/svg">
<path d="M28.6292 4.78291L30.0155 4.64428L30.0155 4.64428L28.6292 4.78291ZM28.0727 2.4582L27.0152 3.36525L27.0152 3.36525L28.0727 2.4582ZM29.7086 8.85824L28.9475 10.0252L28.9475 10.0252L29.7086 8.85824ZM30.3181 9.11071L30.6051 7.74741L30.6051 7.74741L30.3181 9.11071ZM33.9629 6.99233L33.0807 5.91405L33.0807 5.91405L33.9629 6.99233ZM36.0001 5.74212L36.1065 7.13125L36.1065 7.13125L36.0001 5.74212ZM36.4509 5.7646L36.695 4.39296L36.695 4.39296L36.4509 5.7646ZM38.3535 7.21131L39.3386 6.22617L39.3386 6.22617L38.3535 7.21131ZM40.2893 9.1471L41.2744 8.16196L41.2744 8.16196L40.2893 9.1471ZM41.7361 11.0499L40.3644 11.294L40.3644 11.294L41.7361 11.0499ZM41.7586 11.5005L43.1477 11.6069L43.1477 11.6069L41.7586 11.5005ZM40.5082 13.5379L39.43 12.6557L39.43 12.6557L40.5082 13.5379ZM38.3897 17.1829L37.0264 17.47L37.0264 17.4701L38.3897 17.1829ZM38.6422 17.7924L37.4751 18.5533L37.4752 18.5533L38.6422 17.7924ZM42.7175 18.8718L42.8561 17.4855L42.8561 17.4855L42.7175 18.8718ZM45.0421 19.4282L45.9491 18.3708L45.9491 18.3708L45.0421 19.4282ZM45.3449 19.7629L46.4874 18.9656L46.4874 18.9655L45.3449 19.7629ZM45.3451 27.2371L44.2025 26.44L44.2024 26.44L45.3451 27.2371ZM45.0419 27.5721L44.135 26.5145L44.135 26.5145L45.0419 27.5721ZM42.7177 28.1284L42.5791 26.7421L42.5791 26.7421L42.7177 28.1284ZM38.6434 29.2073L39.8102 29.9686L39.8102 29.9686L38.6434 29.2073ZM38.3906 29.8177L37.0272 29.531L37.0272 29.531L38.3906 29.8177ZM40.5085 33.4614L39.4302 34.3436L39.4302 34.3436L40.5085 33.4614ZM41.7584 35.4979L43.1475 35.3912L43.1475 35.3912L41.7584 35.4979ZM41.7359 35.9493L43.1075 36.1937L43.1075 36.1937L41.7359 35.9493ZM36.4508 41.2342L36.2066 39.8626L36.2066 39.8626L36.4508 41.2342ZM35.9999 41.2567L35.8934 42.6458L35.8935 42.6458L35.9999 41.2567ZM33.9629 40.0065L32.9777 40.9917L33.0269 41.0408L33.0807 41.0848L33.9629 40.0065ZM33.9628 40.0065L34.948 39.0214L34.8989 38.9722L34.8451 38.9282L33.9628 40.0065ZM30.3182 37.8882L30.6052 39.2515L30.6052 39.2515L30.3182 37.8882ZM29.7085 38.1407L30.4696 39.3077L30.4696 39.3077L29.7085 38.1407ZM28.6292 42.2162L27.2429 42.0775L27.2429 42.0775L28.6292 42.2162ZM28.0726 44.5412L27.0152 43.6341L27.0152 43.6341L28.0726 44.5412ZM27.7382 44.8439L26.9408 43.7014L26.9408 43.7014L27.7382 44.8439ZM20.2637 44.844L19.4664 45.9865L19.4664 45.9865L20.2637 44.844ZM19.929 44.5411L20.9865 43.6341L20.9865 43.6341L19.929 44.5411ZM19.3726 42.2166L17.9863 42.3552L17.9863 42.3552L19.3726 42.2166ZM18.2932 38.1414L19.0542 36.9744L19.0542 36.9744L18.2932 38.1414ZM17.6837 37.8889L17.3966 39.2522L17.3966 39.2522L17.6837 37.8889ZM14.0387 40.0074L14.921 41.0857L14.921 41.0857L14.0387 40.0074ZM12.0014 41.2577L12.1078 42.6468L12.1078 42.6468L12.0014 41.2577ZM11.5508 41.2352L11.7949 39.8636L11.7948 39.8635L11.5508 41.2352ZM9.64801 39.7884L10.6332 38.8033L10.6332 38.8033L9.64801 39.7884ZM7.71216 37.8526L6.72702 38.8377L6.72702 38.8377L7.71216 37.8526ZM6.26549 35.95L4.89385 36.1942L4.89385 36.1942L6.26549 35.95ZM6.243 35.4991L7.63213 35.6056L7.63213 35.6056L6.243 35.4991ZM7.49319 33.4621L6.41491 32.5799L6.41491 32.5799L7.49319 33.4621ZM9.61153 29.8174L10.9748 29.5303L10.9748 29.5303L9.61153 29.8174ZM9.35901 29.2077L8.19205 29.9688L8.19205 29.9688L9.35901 29.2077ZM5.28381 28.1284L5.14518 29.5147L5.14518 29.5147L5.28381 28.1284ZM2.95922 27.572L3.86624 26.5144L3.86623 26.5144L2.95922 27.572ZM2.65637 27.2373L3.79888 26.44L3.79888 26.44L2.65637 27.2373ZM2.33398 24.8689L3.72718 24.8689L2.33398 24.8689ZM2.33398 22.1316L0.940784 22.1316L2.33398 22.1316ZM2.65652 19.7627L1.51412 18.9652L1.51412 18.9652L2.65652 19.7627ZM2.95903 19.4284L2.05186 18.371L2.05185 18.371L2.95903 19.4284ZM5.28407 18.8718L5.4227 20.258L5.4227 20.258L5.28407 18.8718ZM9.3602 17.792L10.5274 18.5527L10.5274 18.5527L9.3602 17.792ZM9.61237 17.1832L10.9756 17.4705L10.9756 17.4705L9.61237 17.1832ZM7.49349 13.5372L8.57176 12.655L8.57176 12.655L7.49349 13.5372ZM6.24285 11.4992L4.8537 11.6053L4.8537 11.6053L6.24285 11.4992ZM6.2653 11.0492L4.8936 10.8054L4.8936 10.8054L6.2653 11.0492ZM7.71243 9.14585L6.72729 8.16071L6.72729 8.16071L7.71243 9.14585ZM9.64785 7.21044L10.633 8.19558L10.633 8.19558L9.64785 7.21044ZM11.5507 5.7636L11.3067 4.39194L11.3067 4.39194L11.5507 5.7636ZM12.0013 5.74113L11.8949 7.13026L11.8949 7.13026L12.0013 5.74113ZM14.0388 6.99157L13.1566 8.06984L13.1566 8.06984L14.0388 6.99157ZM17.6835 9.11006L17.3966 7.74672L17.3966 7.74672L17.6835 9.11006ZM18.2934 8.85746L19.0545 10.0244L19.0545 10.0244L18.2934 8.85746ZM19.3726 4.78262L17.9863 4.64399L17.9863 4.64399L19.3726 4.78262ZM19.9289 2.45834L18.8713 1.5514L18.8713 1.55141L19.9289 2.45834ZM20.2638 2.15532L19.4665 1.01275L19.4665 1.01275L20.2638 2.15532ZM27.7381 2.15542L28.5355 1.01293L28.5355 1.01293L27.7381 2.15542ZM30.0155 4.64428C29.9553 4.04224 29.901 3.48062 29.8046 3.02087C29.7025 2.53339 29.5265 2.01315 29.1302 1.55115L27.0152 3.36525C26.9857 3.33087 27.0247 3.34063 27.0775 3.59241C27.1361 3.87193 27.1766 4.25885 27.2429 4.92153L30.0155 4.64428ZM30.4696 7.69126C30.579 7.7626 30.4763 7.80167 30.3481 7.23767C30.2219 6.68277 30.1396 5.88504 30.0155 4.64428L27.2429 4.92153C27.3593 6.0852 27.4572 7.09079 27.631 7.85527C27.8027 8.61066 28.1194 9.48519 28.9475 10.0252L30.4696 7.69126ZM30.6051 7.74741C30.5569 7.73724 30.5109 7.71821 30.4696 7.69126L28.9475 10.0252C29.2778 10.2406 29.6452 10.3928 30.031 10.474L30.6051 7.74741ZM33.0807 5.91405C32.1156 6.70364 31.4933 7.20944 31.0118 7.51262C30.5224 7.82076 30.4774 7.7205 30.6051 7.74741L30.031 10.474C30.9985 10.6777 31.8408 10.2833 32.4963 9.87061C33.1598 9.45292 33.9401 8.81113 34.8452 8.07061L33.0807 5.91405ZM35.8936 4.35299C35.2868 4.39948 34.7945 4.64286 34.3776 4.9153C33.9844 5.17225 33.5489 5.53096 33.0807 5.91405L34.8452 8.07061C35.3606 7.64892 35.6628 7.40404 35.9018 7.24783C36.1172 7.10712 36.1516 7.12779 36.1065 7.13125L35.8936 4.35299ZM36.695 4.39296C36.4306 4.34591 36.1614 4.33248 35.8936 4.35299L36.1065 7.13125C36.14 7.12868 36.1737 7.13036 36.2068 7.13625L36.695 4.39296ZM39.3386 6.22617C38.9108 5.79839 38.5132 5.39812 38.1476 5.10333C37.7598 4.79076 37.2942 4.49961 36.695 4.39296L36.2067 7.13625C36.1622 7.12831 36.1985 7.11118 36.3988 7.27262C36.6211 7.45184 36.8975 7.72557 37.3683 8.19645L39.3386 6.22617ZM41.2744 8.16196L39.3386 6.22617L37.3683 8.19645L39.3041 10.1322L41.2744 8.16196ZM43.1078 10.8059C43.0011 10.2066 42.71 9.74092 42.3974 9.35315C42.1025 8.98744 41.7022 8.58979 41.2744 8.16196L39.3041 10.1322C39.7751 10.6032 40.0488 10.8796 40.2281 11.1019C40.3895 11.3022 40.3724 11.3385 40.3644 11.294L43.1078 10.8059ZM43.1477 11.6069C43.1682 11.3393 43.1548 11.0701 43.1077 10.8058L40.3644 11.294C40.3703 11.327 40.372 11.3607 40.3694 11.3942L43.1477 11.6069ZM41.5865 14.4201C41.9697 13.9518 42.3284 13.5163 42.5854 13.1231C42.8578 12.7061 43.1012 12.2138 43.1477 11.6069L40.3694 11.3942C40.3729 11.349 40.3936 11.3835 40.2528 11.5988C40.0966 11.8379 39.8517 12.1402 39.43 12.6557L41.5865 14.4201ZM39.753 16.8958C39.7799 17.0236 39.6797 16.9786 39.9878 16.4892C40.291 16.0076 40.7969 15.3852 41.5865 14.4201L39.43 12.6557C38.6894 13.5608 38.0476 14.3411 37.6298 15.0046C37.2171 15.6602 36.8227 16.5026 37.0264 17.47L39.753 16.8958ZM39.8092 17.0314C39.7822 16.9901 39.7632 16.9441 39.753 16.8958L37.0264 17.4701C37.1077 17.8558 37.2598 18.2231 37.4751 18.5533L39.8092 17.0314ZM42.8561 17.4855C41.6154 17.3614 40.8176 17.279 40.2627 17.1529C39.6988 17.0247 39.7378 16.922 39.8092 17.0314L37.4752 18.5533C38.0152 19.3815 38.8897 19.6983 39.6451 19.87C40.4096 20.0438 41.4152 20.1417 42.5789 20.2581L42.8561 17.4855ZM45.9491 18.3708C45.4871 17.9745 44.9669 17.7985 44.4795 17.6963C44.0197 17.6 43.4582 17.5457 42.8561 17.4855L42.5789 20.2581C43.2415 20.3243 43.6284 20.3649 43.9079 20.4235C44.1597 20.4762 44.1695 20.5152 44.1351 20.4857L45.9491 18.3708ZM46.4874 18.9655C46.3338 18.7454 46.1529 18.5455 45.9491 18.3708L44.1351 20.4857C44.1606 20.5076 44.1832 20.5326 44.2024 20.5602L46.4874 18.9655ZM47.0605 22.1313C47.0605 21.5263 47.0624 20.9621 47.0123 20.495C46.9591 19.9998 46.8357 19.4647 46.4874 18.9656L44.2024 20.5602C44.1765 20.523 44.2143 20.5366 44.2418 20.7924C44.2723 21.0763 44.2741 21.4653 44.2741 22.1313H47.0605ZM47.0605 24.8692V22.1313H44.2741V24.8692H47.0605ZM46.4877 28.0343C46.8358 27.5352 46.9592 27.0002 47.0123 26.5051C47.0624 26.0382 47.0605 25.4741 47.0605 24.8692H44.2741C44.2741 25.535 44.2723 25.9239 44.2418 26.2078C44.2144 26.4635 44.1765 26.4771 44.2025 26.44L46.4877 28.0343ZM45.9488 28.6297C46.1528 28.4548 46.3339 28.2547 46.4877 28.0343L44.2024 26.44C44.1832 26.4676 44.1606 26.4926 44.135 26.5145L45.9488 28.6297ZM42.8563 29.5147C43.4582 29.4545 44.0197 29.4002 44.4794 29.3039C44.9667 29.2018 45.4869 29.0258 45.9488 28.6297L44.135 26.5145C44.1694 26.485 44.1597 26.524 43.9079 26.5767C43.6285 26.6353 43.2416 26.6759 42.5791 26.7421L42.8563 29.5147ZM39.8102 29.9686C39.7388 30.078 39.6998 29.9753 40.2637 29.8472C40.8184 29.7211 41.616 29.6387 42.8563 29.5147L42.5791 26.7421C41.4158 26.8584 40.4105 26.9564 39.6462 27.13C38.891 27.3017 38.0167 27.6182 37.4766 28.4459L39.8102 29.9686ZM39.7539 30.1044C39.7641 30.056 39.7832 30.01 39.8102 29.9686L37.4766 28.4459C37.2608 28.7766 37.1084 29.1446 37.0272 29.531L39.7539 30.1044ZM41.5868 32.5792C40.7974 31.6144 40.2918 30.9923 39.9887 30.5109C39.6806 30.0216 39.7808 29.9766 39.7539 30.1044L37.0272 29.531C36.8238 30.4982 37.2181 31.3402 37.6308 31.9956C38.0484 32.6588 38.6899 33.4388 39.4302 34.3436L41.5868 32.5792ZM43.1475 35.3912C43.1009 34.7845 42.8576 34.2924 42.5852 33.8756C42.3283 33.4826 41.9697 33.0472 41.5868 32.5792L39.4302 34.3436C39.8518 34.8588 40.0966 35.161 40.2527 35.4C40.3934 35.6152 40.3728 35.6497 40.3693 35.6046L43.1475 35.3912ZM43.1075 36.1937C43.1547 35.929 43.1681 35.6593 43.1475 35.3912L40.3693 35.6045C40.3719 35.6381 40.3702 35.6718 40.3643 35.705L43.1075 36.1937ZM41.2747 38.8365C41.7023 38.4088 42.1025 38.0113 42.3972 37.6458C42.7097 37.2582 43.0008 36.7927 43.1075 36.1937L40.3643 35.705C40.3722 35.6604 40.3894 35.6967 40.228 35.8969C40.0488 36.1192 39.7751 36.3955 39.3044 36.8662L41.2747 38.8365ZM39.3385 40.7727L41.2747 38.8365L39.3044 36.8662L37.3682 38.8024L39.3385 40.7727ZM36.695 42.6058C37.2941 42.4992 37.7597 42.208 38.1475 41.8955C38.5131 41.6007 38.9107 41.2005 39.3385 40.7727L37.3682 38.8024C36.8973 39.2733 36.621 39.547 36.3987 39.7262C36.1984 39.8876 36.1621 39.8705 36.2066 39.8626L36.695 42.6058ZM35.8935 42.6458C36.1612 42.6663 36.4305 42.6529 36.695 42.6058L36.2066 39.8626C36.1736 39.8685 36.1399 39.8701 36.1063 39.8676L35.8935 42.6458ZM33.0807 41.0848C33.5489 41.4679 33.9843 41.8266 34.3775 42.0835C34.7944 42.3559 35.2866 42.5993 35.8934 42.6458L36.1064 39.8676C36.1515 39.871 36.117 39.8917 35.9017 39.751C35.6627 39.5948 35.3605 39.3499 34.8451 38.9283L33.0807 41.0848ZM32.9777 40.9917L32.9777 40.9917L34.948 39.0214L34.948 39.0214L32.9777 40.9917ZM32.9777 40.9916L32.9777 40.9917L34.948 39.0214L34.948 39.0214L32.9777 40.9916ZM30.6052 39.2515C30.4774 39.2784 30.5224 39.1782 31.0118 39.4863C31.4933 39.7895 32.1156 40.2952 33.0806 41.0848L34.8451 38.9282C33.94 38.1877 33.1598 37.546 32.4964 37.1283C31.8409 36.7156 30.9986 36.3212 30.0312 36.5249L30.6052 39.2515ZM30.4696 39.3077C30.511 39.2807 30.5569 39.2617 30.6052 39.2515L30.0312 36.5249C29.6453 36.6061 29.2778 36.7584 28.9475 36.9738L30.4696 39.3077ZM30.0155 42.3548C30.1396 41.114 30.222 40.3163 30.3481 39.7613C30.4763 39.1973 30.579 39.2363 30.4696 39.3077L28.9475 36.9738C28.1194 37.5139 27.8027 38.3884 27.631 39.1438C27.4572 39.9082 27.3593 40.9138 27.2429 42.0775L30.0155 42.3548ZM29.13 45.4483C29.5264 44.9863 29.7025 44.466 29.8046 43.9785C29.901 43.5187 29.9553 42.957 30.0155 42.3548L27.2429 42.0775C27.1766 42.7403 27.1361 43.1273 27.0775 43.4069C27.0247 43.6588 26.9857 43.6685 27.0152 43.6341L29.13 45.4483ZM28.5356 45.9863C28.7556 45.8327 28.9554 45.652 29.1301 45.4483L27.0152 43.6341C26.9933 43.6596 26.9683 43.6822 26.9408 43.7014L28.5356 45.9863ZM25.3695 46.5595C25.9746 46.5595 26.5389 46.5614 27.006 46.5113C27.5012 46.4581 28.0364 46.3347 28.5356 45.9863L26.9408 43.7014C26.978 43.6755 26.9644 43.7133 26.7086 43.7408C26.4246 43.7713 26.0356 43.7731 25.3695 43.7731V46.5595ZM22.632 46.5595H25.3695V43.7731H22.632V46.5595ZM19.4664 45.9865C19.9655 46.3348 20.5006 46.4581 20.9958 46.5113C21.4628 46.5614 22.027 46.5595 22.632 46.5595V43.7731C21.9661 43.7731 21.5771 43.7713 21.2931 43.7408C21.0374 43.7134 21.0238 43.6755 21.0609 43.7014L19.4664 45.9865ZM18.8715 45.4481C19.0463 45.6519 19.2462 45.8328 19.4664 45.9865L21.0609 43.7015C21.0334 43.6822 21.0084 43.6596 20.9865 43.6341L18.8715 45.4481ZM17.9863 42.3552C18.0465 42.9572 18.1007 43.5188 18.1971 43.9785C18.2992 44.4659 18.4752 44.9861 18.8715 45.4481L20.9865 43.6341C21.016 43.6685 20.977 43.6587 20.9242 43.4069C20.8657 43.1275 20.8251 42.7406 20.7588 42.078L17.9863 42.3552ZM17.5322 39.3084C17.4228 39.237 17.5255 39.198 17.6537 39.7619C17.7798 40.3168 17.8622 41.1145 17.9863 42.3552L20.7588 42.078C20.6425 40.9143 20.5445 39.9088 20.3708 39.1443C20.1991 38.389 19.8823 37.5144 19.0542 36.9744L17.5322 39.3084ZM17.3966 39.2522C17.4449 39.2624 17.4908 39.2814 17.5322 39.3084L19.0542 36.9744C18.724 36.759 18.3566 36.6068 17.9707 36.5256L17.3966 39.2522ZM14.921 41.0857C15.886 40.296 16.5084 39.7902 16.9899 39.487C17.4794 39.1789 17.5244 39.2791 17.3966 39.2522L17.9707 36.5256C17.0033 36.3219 16.1609 36.7163 15.5054 37.129C14.8419 37.5467 14.0616 38.1885 13.1565 38.9291L14.921 41.0857ZM12.1078 42.6468C12.7147 42.6003 13.207 42.3569 13.624 42.0845C14.0172 41.8275 14.4527 41.4688 14.921 41.0857L13.1565 38.9291C12.6411 39.3508 12.3388 39.5957 12.0997 39.752C11.8844 39.8927 11.8499 39.872 11.8951 39.8686L12.1078 42.6468ZM11.3067 42.6069C11.571 42.6539 11.8402 42.6673 12.1078 42.6468L11.8951 39.8685C11.8616 39.8711 11.8279 39.8694 11.7949 39.8636L11.3067 42.6069ZM8.66287 40.7736C9.09068 41.2014 9.48832 41.6017 9.85402 41.8965C10.2418 42.2091 10.7074 42.5002 11.3067 42.6069L11.7948 39.8635C11.8394 39.8715 11.8031 39.8886 11.6028 39.7272C11.3805 39.5479 11.1041 39.2742 10.6332 38.8033L8.66287 40.7736ZM6.72702 38.8377L8.66287 40.7736L10.6332 38.8033L8.6973 36.8674L6.72702 38.8377ZM4.89385 36.1942C5.0005 36.7934 5.29165 37.259 5.60422 37.6467C5.899 38.0123 6.29925 38.4099 6.72702 38.8377L8.69731 36.8674C8.22644 36.3966 7.95271 36.1202 7.7735 35.8979C7.61206 35.6976 7.62919 35.6613 7.63713 35.7059L4.89385 36.1942ZM4.85387 35.3927C4.83335 35.6605 4.84678 35.9298 4.89385 36.1942L7.63713 35.7059C7.63124 35.6728 7.62956 35.6391 7.63213 35.6056L4.85387 35.3927ZM6.41491 32.5799C6.03182 33.0481 5.67312 33.4835 5.41619 33.8767C5.14376 34.2936 4.90038 34.7859 4.85387 35.3927L7.63213 35.6056C7.62867 35.6508 7.608 35.6163 7.74871 35.401C7.90492 35.1619 8.14979 34.8597 8.57146 34.3443L6.41491 32.5799ZM8.24821 30.1044C8.22131 29.9766 8.32156 30.0216 8.01342 30.511C7.71026 30.9925 7.20447 31.6148 6.41491 32.5799L8.57146 34.3443C9.31197 33.4392 9.95373 32.659 10.3714 31.9956C10.7841 31.34 11.1785 30.4977 10.9748 29.5303L8.24821 30.1044ZM8.19205 29.9688C8.219 30.0101 8.23805 30.0561 8.24821 30.1044L10.9748 29.5303C10.8936 29.1444 10.7414 28.777 10.526 28.4467L8.19205 29.9688ZM5.14518 29.5147C6.3859 29.6388 7.1836 29.7212 7.73848 29.8473C8.30246 29.9755 8.26339 30.0782 8.19205 29.9688L10.526 28.4467C9.98594 27.6186 9.11144 27.3019 8.35608 27.1302C7.59162 26.9564 6.58606 26.8585 5.42244 26.7421L5.14518 29.5147ZM2.05219 28.6295C2.51418 29.0257 3.0344 29.2017 3.52185 29.3039C3.98158 29.4002 4.54318 29.4545 5.14518 29.5147L5.42244 26.7421C4.75979 26.6759 4.37289 26.6353 4.09339 26.5767C3.84161 26.524 3.83185 26.485 3.86624 26.5144L2.05219 28.6295ZM1.51386 28.0346C1.66751 28.2548 1.84839 28.4547 2.0522 28.6295L3.86623 26.5144C3.84074 26.4926 3.81811 26.4676 3.79888 26.44L1.51386 28.0346ZM0.940784 24.8689C0.940784 25.4739 0.938914 26.0381 0.989038 26.5052C1.04219 27.0004 1.16555 27.5355 1.51386 28.0346L3.79888 26.44C3.8248 26.4772 3.78698 26.4636 3.75953 26.2078C3.72905 25.9239 3.72718 25.5349 3.72718 24.8689L0.940784 24.8689ZM0.940784 22.1316L0.940784 24.8689L3.72718 24.8689L3.72718 22.1316L0.940784 22.1316ZM1.51412 18.9652C1.16566 19.4644 1.04223 19.9997 0.98906 20.495C0.938914 20.9621 0.940784 21.5264 0.940784 22.1316L3.72718 22.1316C3.72718 21.4655 3.72906 21.0764 3.75954 20.7924C3.787 20.5366 3.82484 20.523 3.79892 20.5601L1.51412 18.9652ZM2.05185 18.371C1.84831 18.5457 1.66763 18.7453 1.51412 18.9652L3.79891 20.5601C3.81812 20.5326 3.84073 20.5076 3.8662 20.4858L2.05185 18.371ZM5.14544 17.4855C4.54331 17.5457 3.9816 17.6 3.52177 17.6964C3.03421 17.7985 2.5139 17.9746 2.05186 18.371L3.86619 20.4858C3.83182 20.5153 3.84157 20.4763 4.09338 20.4235C4.37293 20.3649 4.75991 20.3243 5.4227 20.258L5.14544 17.4855ZM8.19305 17.0312C8.26437 16.9218 8.30349 17.0245 7.7394 17.1528C7.1844 17.279 6.38649 17.3614 5.14544 17.4855L5.4227 20.258C6.58663 20.1416 7.59245 20.0437 8.35709 19.8699C9.11266 19.6981 9.98736 19.3812 10.5274 18.5527L8.19305 17.0312ZM8.24913 16.8958C8.23897 16.944 8.21995 16.9899 8.19305 17.0312L10.5274 18.5527C10.7424 18.2228 10.8944 17.8559 10.9756 17.4705L8.24913 16.8958ZM6.41521 14.4195C7.20505 15.3848 7.71102 16.0074 8.01428 16.4891C8.32251 16.9787 8.22219 17.0236 8.24913 16.8958L10.9756 17.4705C11.1796 16.5029 10.7851 15.6603 10.3723 15.0046C9.95452 14.3409 9.31253 13.5604 8.57176 12.655L6.41521 14.4195ZM4.8537 11.6053C4.90008 12.2124 5.14352 12.7049 5.41605 13.122C5.67308 13.5154 6.03194 13.951 6.41521 14.4195L8.57176 12.655C8.14989 12.1394 7.9049 11.837 7.74863 11.5978C7.60786 11.3824 7.62856 11.3479 7.63201 11.3931L4.8537 11.6053ZM4.8936 10.8054C4.84669 11.0693 4.83329 11.3381 4.8537 11.6053L7.63201 11.3931C7.62945 11.3597 7.63113 11.3261 7.637 11.293L4.8936 10.8054ZM6.72729 8.16071C6.29934 8.58866 5.89893 8.98643 5.60405 9.35224C5.29137 9.74013 5.00015 10.206 4.8936 10.8054L7.637 11.293C7.62907 11.3376 7.61191 11.3013 7.7734 11.1009C7.95267 10.8785 8.22652 10.6021 8.69758 10.131L6.72729 8.16071ZM8.66271 6.22529L6.72729 8.16071L8.69758 10.131L10.633 8.19558L8.66271 6.22529ZM11.3067 4.39194C10.7074 4.49856 10.2417 4.78973 9.85392 5.10234C9.4882 5.39715 9.09054 5.79746 8.66271 6.22529L10.633 8.19558C11.1039 7.72464 11.3803 7.45087 11.6027 7.27164C11.803 7.11018 11.8393 7.12733 11.7947 7.13526L11.3067 4.39194ZM12.1076 4.35199C11.84 4.33151 11.5709 4.34493 11.3067 4.39194L11.7947 7.13526C11.8278 7.12938 11.8615 7.1277 11.8949 7.13026L12.1076 4.35199ZM14.921 5.91329C14.4527 5.53011 14.0171 5.17133 13.6239 4.91435C13.2069 4.64187 12.7145 4.39845 12.1076 4.35199L11.8949 7.13026C11.8497 7.1268 11.8842 7.10612 12.0996 7.24688C12.3387 7.40313 12.641 7.64807 13.1566 8.06984L14.921 5.91329ZM17.3966 7.74672C17.5244 7.71982 17.4794 7.82007 16.9899 7.51189C16.5084 7.20869 15.8861 6.70288 14.921 5.91329L13.1566 8.06984C14.0616 8.81038 14.8419 9.45215 15.5053 9.86984C16.1608 10.2825 17.0031 10.677 17.9705 10.4734L17.3966 7.74672ZM17.5322 7.69054C17.4909 7.71751 17.4449 7.73656 17.3966 7.74672L17.9705 10.4734C18.3565 10.3921 18.7241 10.2399 19.0545 10.0244L17.5322 7.69054ZM17.9863 4.64399C17.8622 5.88458 17.7798 6.68219 17.6537 7.23702C17.5256 7.80093 17.4229 7.76188 17.5322 7.69054L19.0545 10.0244C19.8825 9.48432 20.1992 8.6099 20.3708 7.8546C20.5446 7.0902 20.6425 6.08475 20.7589 4.92125L17.9863 4.64399ZM18.8713 1.55141C18.4752 2.01336 18.2992 2.53351 18.1971 3.0209C18.1007 3.48056 18.0465 4.04208 17.9863 4.64399L20.7589 4.92125C20.8251 4.2587 20.8657 3.87186 20.9242 3.5924C20.977 3.34067 21.016 3.3309 20.9865 3.36528L18.8713 1.55141ZM19.4665 1.01275C19.2462 1.16648 19.0462 1.34747 18.8713 1.5514L20.9865 3.36529C21.0084 3.33977 21.0334 3.31712 21.061 3.29789L19.4665 1.01275ZM22.6319 0.439808C22.0269 0.439808 21.4628 0.437938 20.9958 0.48805C20.5007 0.541184 19.9656 0.664521 19.4665 1.01275L21.061 3.29789C21.0238 3.3238 21.0374 3.28599 21.2931 3.25854C21.577 3.22808 21.966 3.22621 22.6319 3.22621V0.439808ZM25.3696 0.439808H22.6319V3.22621H25.3696V0.439808ZM28.5355 1.01293C28.0363 0.664598 27.5012 0.541218 27.0059 0.488066C26.5389 0.437938 25.9747 0.439808 25.3696 0.439808V3.22621C26.0356 3.22621 26.4246 3.22808 26.7086 3.25855C26.9644 3.28601 26.9779 3.32383 26.9408 3.29791L28.5355 1.01293ZM29.1302 1.55116C28.9554 1.3474 28.7556 1.16656 28.5355 1.01293L26.9408 3.29791C26.9683 3.31713 26.9933 3.33976 27.0152 3.36525L29.1302 1.55116ZM31.2745 23.4997C31.2745 27.5167 28.0181 30.7731 24.0011 30.7731V33.5595C29.557 33.5595 34.0609 29.0556 34.0609 23.4997H31.2745ZM24.0011 16.2262C28.0181 16.2262 31.2745 19.4827 31.2745 23.4997H34.0609C34.0609 17.9438 29.557 13.4398 24.0011 13.4398V16.2262ZM16.7276 23.4997C16.7276 19.4827 19.9841 16.2262 24.0011 16.2262V13.4398C18.4452 13.4398 13.9412 17.9438 13.9412 23.4997H16.7276ZM24.0011 30.7731C19.9841 30.7731 16.7276 27.5167 16.7276 23.4997H13.9412C13.9412 29.0556 18.4452 33.5595 24.0011 33.5595V30.7731Z" fill="#757575"/>
</svg>
