<svg width="30" height="28" viewBox="0 0 30 28" fill="none" xmlns="http://www.w3.org/2000/svg">
<path d="M16.7197 16.824C16.7197 16.371 16.5917 16.011 16.3377 15.746C16.0877 15.474 15.6627 15.226 15.0597 14.999C14.5277 14.8028 14.0066 14.5781 13.4987 14.326C13.0904 14.1189 12.7108 13.8594 12.3697 13.554C12.0611 13.2623 11.8131 12.9127 11.6397 12.525C11.4677 12.132 11.3817 11.665 11.3817 11.122C11.3817 10.187 11.6807 9.42 12.2787 8.822C12.8757 8.225 13.6697 7.877 14.6607 7.777V6.664C14.6607 6.4879 14.7307 6.31901 14.8552 6.19448C14.9797 6.06996 15.1486 6 15.3247 6C15.5008 6 15.6697 6.06996 15.7942 6.19448C15.9188 6.31901 15.9887 6.4879 15.9887 6.664V7.801C16.9687 7.939 17.7347 8.349 18.2887 9.029C18.6607 9.484 18.9077 10.029 19.0287 10.666C19.1327 11.209 18.6707 11.661 18.1187 11.661H17.7187C17.1667 11.661 16.7587 11.197 16.5787 10.675C16.5194 10.4927 16.4265 10.3231 16.3047 10.175C16.0327 9.843 15.6677 9.677 15.2087 9.677C14.7547 9.677 14.4037 9.807 14.1547 10.067C13.9047 10.322 13.7807 10.676 13.7807 11.129C13.7807 11.55 13.9027 11.888 14.1457 12.142C14.3897 12.397 14.8407 12.657 15.4987 12.922C16.1637 13.188 16.7087 13.44 17.1347 13.678C17.5607 13.91 17.9197 14.176 18.2137 14.475C18.5067 14.768 18.7307 15.105 18.8857 15.487C19.0407 15.864 19.1177 16.304 19.1177 16.807C19.1177 17.748 18.8247 18.512 18.2377 19.098C17.6517 19.685 16.8437 20.031 15.8147 20.136V21.128C15.8147 21.303 15.7452 21.4709 15.6214 21.5947C15.4976 21.7185 15.3298 21.788 15.1547 21.788C14.9797 21.788 14.8118 21.7185 14.688 21.5947C14.5643 21.4709 14.4947 21.303 14.4947 21.128V20.144C13.3607 20.022 12.4807 19.621 11.8547 18.941C11.4287 18.468 11.1487 17.889 11.0147 17.204C10.9107 16.662 11.3727 16.209 11.9247 16.209H12.3247C12.8767 16.209 13.2867 16.674 13.4777 17.193C13.5527 17.399 13.6577 17.578 13.7887 17.729C14.1047 18.077 14.5557 18.251 15.1417 18.251C15.6287 18.251 16.0137 18.124 16.2957 17.87C16.5777 17.61 16.7197 17.261 16.7197 16.824Z" fill="#EE7003"/>
<path d="M15.0124 0C8.36702 0 2.90404 5.09636 2.37138 11.5942H1.03977C0.618496 11.5942 0.238851 11.8493 0.0783975 12.2403C-0.0820556 12.6313 0.00840191 13.0807 0.30746 13.3784L2.63622 15.6973C3.0416 16.1009 3.69548 16.1009 4.10086 15.6973L6.42962 13.3784C6.72868 13.0807 6.81913 12.6313 6.65868 12.2403C6.49823 11.8493 6.11858 11.5942 5.69731 11.5942H4.45953C4.98594 6.26321 9.50296 2.08696 15.0124 2.08696C18.8518 2.08696 22.2127 4.11611 24.0743 7.1552C24.375 7.64614 25.0154 7.79946 25.5046 7.49764C25.9939 7.19583 26.1466 6.55316 25.8458 6.06222C23.6189 2.42682 19.5989 0 15.0124 0Z" fill="#EE7003"/>
<path d="M27.2612 11.3202C26.8422 10.8933 26.1676 10.8933 25.7486 11.3202L23.3294 13.784C23.0191 14.1001 22.9249 14.5778 23.0906 14.9938C23.2564 15.4097 23.6495 15.6812 24.0859 15.6812H25.3757C24.8287 21.3422 20.1382 25.7826 14.4095 25.7826C10.4178 25.7826 6.92544 23.6248 4.99173 20.396C4.67966 19.8749 4.01673 19.7132 3.51104 20.0348C3.00536 20.3564 2.8484 21.0395 3.16047 21.5605C5.47393 25.4234 9.64858 28 14.4095 28C21.3069 28 26.9835 22.5884 27.5367 15.6812H28.9239C29.3603 15.6812 29.7534 15.4097 29.9192 14.9938C30.0851 14.5778 29.9907 14.1001 29.6804 13.784L27.2612 11.3202Z" fill="#EE7003"/>
</svg>
