<svg width="110" height="110" viewBox="0 0 110 110" fill="none" xmlns="http://www.w3.org/2000/svg">
<rect width="110" height="110" fill="white"/>
<path fill-rule="evenodd" clip-rule="evenodd" d="M64.7365 14.9104C64.7514 15.0214 64.7643 15.1499 64.79 15.4069C64.8385 15.8922 64.8628 16.1349 64.8872 16.2972C65.6294 21.2344 71.3588 23.6076 75.3747 20.6413C75.5067 20.5437 75.6955 20.3893 76.0729 20.0805C76.2728 19.917 76.3727 19.8352 76.4617 19.7673C79.0319 17.8055 82.6427 17.9856 85.0049 20.1934C85.0867 20.2698 85.178 20.3611 85.3607 20.5437L89.4557 24.6388L89.4558 24.6388C89.6384 24.8215 89.7297 24.9128 89.8062 24.9946C92.0139 27.3568 92.1939 30.9676 90.2323 33.5377C90.1644 33.6267 90.0826 33.7266 89.9193 33.9263L89.919 33.9266L89.9186 33.927C89.61 34.3043 89.4556 34.493 89.3581 34.625C86.3919 38.6409 88.765 44.3702 93.7021 45.1124C93.8644 45.1368 94.1071 45.1611 94.5925 45.2096L94.5926 45.2097L94.5931 45.2097C94.8499 45.2354 94.9784 45.2482 95.0893 45.2631C98.2938 45.6934 100.72 48.3739 100.829 51.6053C100.833 51.7172 100.833 51.8464 100.833 52.1048V57.8964C100.833 58.1543 100.833 58.2832 100.829 58.3949C100.72 61.6266 98.2937 64.3075 95.0889 64.7376C94.9781 64.7524 94.8498 64.7653 94.5931 64.791L94.5928 64.791C94.1087 64.8394 93.8666 64.8636 93.7048 64.8879C88.7667 65.6296 86.3931 71.3601 89.3604 75.3762C89.4576 75.5079 89.6116 75.6961 89.9197 76.0726L89.9202 76.0733C90.083 76.2722 90.1644 76.3717 90.2321 76.4604C92.1943 79.0307 92.0142 82.6421 89.8059 85.0045C89.7297 85.0861 89.6386 85.1771 89.4565 85.3593L85.3609 89.4549C85.1782 89.6375 85.0869 89.7288 85.0051 89.8053C82.6429 92.013 79.0321 92.1931 76.462 90.2314C76.373 90.1634 76.273 90.0817 76.0731 89.9181L76.0723 89.9174C75.6954 89.6091 75.5068 89.4548 75.3749 89.3573C71.359 86.3911 65.6296 88.7642 64.8874 93.7014C64.863 93.8637 64.8387 94.1067 64.7901 94.5926C64.7643 94.8506 64.7514 94.9795 64.7365 95.0908C64.306 98.2948 61.6259 100.72 58.3949 100.83C58.2827 100.834 58.1532 100.834 57.8943 100.834H52.1038C51.8454 100.834 51.7162 100.834 51.6043 100.83C48.3729 100.721 45.6924 98.2948 45.2621 95.0903C45.2472 94.9793 45.2344 94.8508 45.2087 94.5937L45.2086 94.5933C45.1601 94.1081 45.1358 93.8654 45.1114 93.7031C44.3691 88.766 38.64 86.3929 34.6241 89.359C34.4921 89.4565 34.3035 89.6109 33.9264 89.9193L33.9255 89.9201L33.9246 89.9208C33.7252 90.084 33.6254 90.1656 33.5365 90.2335C30.9663 92.1951 27.3556 92.015 24.9935 89.8074C24.9116 89.7309 24.8203 89.6396 24.6375 89.4568L20.5426 85.3619L20.5422 85.3615C20.3598 85.1791 20.2685 85.0878 20.1921 85.0061C17.9845 82.6439 17.8044 79.0331 19.766 76.463C19.834 76.374 19.9158 76.274 20.0794 76.074C20.3883 75.6965 20.5427 75.5077 20.6403 75.3757C23.6065 71.3597 21.2334 65.6304 16.2962 64.8882C16.1339 64.8638 15.8912 64.8395 15.4059 64.791C15.1489 64.7653 15.0204 64.7524 14.9094 64.7375C11.7049 64.3073 9.27905 61.6267 9.1698 58.3953C9.16602 58.2834 9.16602 58.1543 9.16602 57.896L9.16602 52.1052C9.16602 51.8464 9.16602 51.717 9.16981 51.6049C9.27928 48.3738 11.7048 45.6936 14.909 45.2632C15.0202 45.2482 15.1489 45.2354 15.4065 45.2096C15.8928 45.161 16.1359 45.1367 16.2986 45.1122C21.2351 44.3696 23.6079 38.6411 20.6424 34.6254C20.5447 34.493 20.3898 34.3038 20.0802 33.9253C19.916 33.7247 19.834 33.6244 19.7658 33.5351C17.8047 30.9652 17.9848 27.3551 20.1919 24.993C20.2686 24.9109 20.3602 24.8193 20.5434 24.6361L24.6377 20.5418C24.8205 20.359 24.9118 20.2677 24.9937 20.1912C27.3559 17.9836 30.9665 17.8035 33.5367 19.7651C33.6257 19.8331 33.7258 19.915 33.9259 20.0787L33.9261 20.0788L33.9262 20.0789C34.3033 20.3875 34.4919 20.5418 34.6236 20.6391C38.6397 23.6061 44.3699 21.2326 45.1118 16.2948C45.1361 16.1328 45.1603 15.8908 45.2087 15.407L45.2087 15.4063C45.2344 15.1498 45.2472 15.0216 45.2621 14.9109C45.6921 11.706 48.373 9.27979 51.6048 9.17076C51.7165 9.16699 51.8454 9.16699 52.1031 9.16699H57.895C58.1533 9.16699 58.2824 9.16699 58.3943 9.17078C61.6257 9.28003 64.3063 11.7059 64.7365 14.9104ZM54.9993 73.3337C65.1246 73.3337 73.3327 65.1255 73.3327 55.0003C73.3327 44.8751 65.1246 36.667 54.9993 36.667C44.8741 36.667 36.666 44.8751 36.666 55.0003C36.666 65.1255 44.8741 73.3337 54.9993 73.3337Z" fill="#ED7004"/>
</svg>
