<svg width="104" height="104" viewBox="0 0 104 104" fill="none" xmlns="http://www.w3.org/2000/svg">
<path d="M51.9993 8.66699C28.0793 8.66699 8.66602 28.0803 8.66602 52.0003C8.66602 75.9203 28.0793 95.3336 51.9993 95.3336C75.9193 95.3336 95.3327 75.9203 95.3327 52.0003C95.3327 28.0803 75.9193 8.66699 51.9993 8.66699ZM56.3327 82.3337H47.666V73.667H56.3327V82.3337ZM65.3027 48.7503L61.4027 52.737C58.2827 55.9003 56.3327 58.5003 56.3327 65.0003H47.666V62.8337C47.666 58.067 49.616 53.7337 52.736 50.5703L58.1093 45.1103C59.7127 43.5503 60.666 41.3837 60.666 39.0003C60.666 34.2337 56.766 30.3337 51.9993 30.3337C47.2327 30.3337 43.3327 34.2337 43.3327 39.0003H34.666C34.666 29.4237 42.4227 21.667 51.9993 21.667C61.576 21.667 69.3327 29.4237 69.3327 39.0003C69.3327 42.8137 67.7727 46.2803 65.3027 48.7503Z" fill="#ED7004"/>
</svg>
