<svg width="32" height="33" viewBox="0 0 32 33" fill="none" xmlns="http://www.w3.org/2000/svg">
<path d="M15.9993 2.75C8.63935 2.75 2.66602 8.91 2.66602 16.5C2.66602 24.09 8.63935 30.25 15.9993 30.25C23.3593 30.25 29.3327 24.09 29.3327 16.5C29.3327 8.91 23.3593 2.75 15.9993 2.75ZM17.3327 26.125H14.666V23.375H17.3327V26.125ZM20.0927 15.4688L18.8927 16.7338C17.9327 17.7375 17.3327 18.5625 17.3327 20.625H14.666V19.9375C14.666 18.425 15.266 17.05 16.226 16.0463L17.8793 14.3137C18.3727 13.8187 18.666 13.1313 18.666 12.375C18.666 10.8625 17.466 9.625 15.9993 9.625C14.5327 9.625 13.3327 10.8625 13.3327 12.375H10.666C10.666 9.33625 13.0527 6.875 15.9993 6.875C18.946 6.875 21.3327 9.33625 21.3327 12.375C21.3327 13.585 20.8527 14.685 20.0927 15.4688Z" fill="#53348D"/>
</svg>
