<svg width="29" height="29" viewBox="0 0 29 29" fill="none" xmlns="http://www.w3.org/2000/svg">
<path d="M14.1667 0C11.3648 0 8.62579 0.83086 6.29609 2.38751C3.9664 3.94417 2.15062 6.1567 1.07838 8.74532C0.00613819 11.3339 -0.274409 14.1824 0.272215 16.9304C0.818839 19.6785 2.16808 22.2028 4.14933 24.184C6.13057 26.1653 8.65483 27.5145 11.4029 28.0611C14.151 28.6077 16.9994 28.3272 19.588 27.255C22.1766 26.1827 24.3892 24.3669 25.9458 22.0372C27.5025 19.7075 28.3333 16.9686 28.3333 14.1667C28.3333 12.3063 27.9669 10.4641 27.255 8.74532C26.543 7.02654 25.4995 5.46482 24.184 4.14932C22.8685 2.83382 21.3068 1.79031 19.588 1.07837C17.8692 0.366432 16.0271 0 14.1667 0ZM14.1667 25.5C11.9252 25.5 9.73397 24.8353 7.87021 23.59C6.00645 22.3447 4.55383 20.5746 3.69604 18.5037C2.83825 16.4328 2.61381 14.1541 3.05111 11.9556C3.48841 9.75719 4.5678 7.73778 6.1528 6.15279C7.73779 4.56779 9.7572 3.4884 11.9557 3.0511C14.1541 2.6138 16.4329 2.83824 18.5038 3.69603C20.5746 4.55383 22.3447 6.00645 23.59 7.8702C24.8353 9.73396 25.5 11.9251 25.5 14.1667C25.5 17.1725 24.306 20.0551 22.1806 22.1805C20.0551 24.306 17.1725 25.5 14.1667 25.5Z" fill="#ED7004"/>
<path d="M14.1667 21.2513C14.9491 21.2513 15.5833 20.617 15.5833 19.8346C15.5833 19.0522 14.9491 18.418 14.1667 18.418C13.3843 18.418 12.75 19.0522 12.75 19.8346C12.75 20.617 13.3843 21.2513 14.1667 21.2513Z" fill="#ED7004"/>
<path d="M14.1667 7.08398C13.7909 7.08398 13.4306 7.23324 13.1649 7.49892C12.8993 7.76459 12.75 8.12493 12.75 8.50065V15.584C12.75 15.9597 12.8993 16.32 13.1649 16.5857C13.4306 16.8514 13.7909 17.0007 14.1667 17.0007C14.5424 17.0007 14.9027 16.8514 15.1684 16.5857C15.4341 16.32 15.5833 15.9597 15.5833 15.584V8.50065C15.5833 8.12493 15.4341 7.76459 15.1684 7.49892C14.9027 7.23324 14.5424 7.08398 14.1667 7.08398Z" fill="#ED7004"/>
</svg>
