<svg width="25" height="25" viewBox="0 0 25 25" fill="none" xmlns="http://www.w3.org/2000/svg">
<path d="M3.75 0H21.25C22.2446 0 23.1984 0.395083 23.9017 1.09833C24.6049 1.80159 25 2.7554 25 3.74995V16.2498C25 17.2443 24.6049 18.1981 23.9017 18.9014C23.1984 19.6046 22.2446 19.9997 21.25 19.9997H6.7625L2.1375 24.6372C2.0207 24.753 1.88218 24.8447 1.72989 24.9069C1.57759 24.9691 1.41451 25.0006 1.25 24.9997C1.08603 25.0039 0.923349 24.9696 0.775002 24.8997C0.546728 24.8059 0.351318 24.6466 0.213402 24.442C0.0754852 24.2373 0.00123215 23.9964 0 23.7497V3.74995C0 2.7554 0.395088 1.80159 1.09835 1.09833C1.80161 0.395083 2.75544 0 3.75 0ZM2.5 20.7372L5.3625 17.8623C5.4793 17.7464 5.61782 17.6547 5.77011 17.5925C5.92241 17.5303 6.08549 17.4988 6.25 17.4998H21.25C21.5815 17.4998 21.8995 17.3681 22.1339 17.1336C22.3683 16.8992 22.5 16.5813 22.5 16.2498V3.74995C22.5 3.41843 22.3683 3.10049 22.1339 2.86608C21.8995 2.63166 21.5815 2.49997 21.25 2.49997H3.75C3.41848 2.49997 3.10054 2.63166 2.86612 2.86608C2.63169 3.10049 2.5 3.41843 2.5 3.74995V20.7372Z" fill="#ED7005"/>
</svg>
