<svg width="88" height="84" viewBox="0 0 88 84" fill="none" xmlns="http://www.w3.org/2000/svg">
<path fill-rule="evenodd" clip-rule="evenodd" d="M75.4286 84H16C11.7565 84 7.68687 82.3082 4.68629 79.2968C1.68571 76.2855 0 72.2012 0 67.9424V8.03852C0 3.14326 4.82743 0.037266 9.07429 1.51456C9.68229 1.7256 10.2766 2.03299 10.8434 2.44131L11.6434 3.0148C13.5893 4.40046 15.9172 5.1429 18.3031 5.13878C20.689 5.13467 23.0143 4.38422 24.9554 2.99186C27.6802 1.04575 30.9414 0 34.2857 0C37.63 0 40.8913 1.04575 43.616 2.99186C45.5571 4.38422 47.8824 5.13467 50.2683 5.13878C52.6543 5.1429 54.9821 4.40046 56.928 3.0148L57.728 2.44131C62.2674 -0.816078 68.5714 2.44131 68.5714 8.03852V42.7091H84.5714C85.4807 42.7091 86.3528 43.0716 86.9958 43.7169C87.6388 44.3622 88 45.2374 88 46.15V71.3833C88 74.7295 86.6755 77.9386 84.3179 80.3047C81.9603 82.6707 78.7627 84 75.4286 84ZM69.7143 49.5909V71.3833C69.7143 72.9043 70.3163 74.363 71.388 75.4385C72.4596 76.514 73.9131 77.1182 75.4286 77.1182C76.9441 77.1182 78.3975 76.514 79.4692 75.4385C80.5408 74.363 81.1429 72.9043 81.1429 71.3833V49.5909H69.7143ZM50.2857 30.0924C50.2857 29.1799 49.9245 28.3047 49.2815 27.6594C48.6385 27.0141 47.7665 26.6515 46.8571 26.6515H19.4286C18.5193 26.6515 17.6472 27.0141 17.0042 27.6594C16.3612 28.3047 16 29.1799 16 30.0924C16 31.005 16.3612 31.8802 17.0042 32.5255C17.6472 33.1708 18.5193 33.5334 19.4286 33.5334H46.8571C47.7665 33.5334 48.6385 33.1708 49.2815 32.5255C49.9245 31.8802 50.2857 31.005 50.2857 30.0924ZM45.7143 43.8561C45.7143 42.9435 45.3531 42.0683 44.7101 41.423C44.0671 40.7777 43.195 40.4152 42.2857 40.4152H19.4286C18.5193 40.4152 17.6472 40.7777 17.0042 41.423C16.3612 42.0683 16 42.9435 16 43.8561C16 44.7687 16.3612 45.6439 17.0042 46.2892C17.6472 46.9345 18.5193 47.297 19.4286 47.297H42.2857C43.195 47.297 44.0671 46.9345 44.7101 46.2892C45.3531 45.6439 45.7143 44.7687 45.7143 43.8561ZM46.8571 54.1788C47.7665 54.1788 48.6385 54.5413 49.2815 55.1866C49.9245 55.8319 50.2857 56.7071 50.2857 57.6197C50.2857 58.5323 49.9245 59.4075 49.2815 60.0528C48.6385 60.6981 47.7665 61.0606 46.8571 61.0606H19.4286C18.5193 61.0606 17.6472 60.6981 17.0042 60.0528C16.3612 59.4075 16 58.5323 16 57.6197C16 56.7071 16.3612 55.8319 17.0042 55.1866C17.6472 54.5413 18.5193 54.1788 19.4286 54.1788H46.8571Z" fill="#ED7004"/>
</svg>
