<svg width="54" height="53" viewBox="0 0 54 53" fill="none" xmlns="http://www.w3.org/2000/svg">
<rect y="0.808594" width="54" height="51.4286" rx="10" fill="#53348D"/>
<path d="M41.8518 24.0165C41.8476 23.9879 41.823 23.9668 41.7941 23.9668C40.9904 23.9668 40.1615 23.9417 39.3577 23.9668C39.201 23.9668 39.0884 23.8465 39.0549 23.6934C38.7435 22.2691 38.1895 20.9399 37.4419 19.7224C37.3121 19.511 37.3235 19.2513 37.499 19.0761C38.4533 18.1231 38.5897 16.5963 37.6453 15.6335C37.5862 15.5733 37.5266 15.5135 37.4666 15.4543C36.4449 14.4459 34.8007 14.5792 33.8067 15.6149C33.6838 15.7376 33.4869 15.7272 33.3402 15.6343C32.0899 14.8429 30.6794 14.2611 29.1835 13.9449C29.0824 13.9236 28.9842 13.8371 28.9842 13.7338C29.0093 13.3074 28.9842 12.856 28.9842 12.4296C28.9842 11.7222 28.4692 11.1125 27.7643 11.0537C27.3484 11.019 26.9261 11 26.4975 11C26.0691 11 25.6469 11.0189 25.2311 11.0537C24.537 11.1116 24.0109 11.7331 24.0109 12.4296C24.0109 12.856 24.0109 13.3074 24.0109 13.7338C24.0109 13.8468 23.9208 13.9218 23.8102 13.9452C22.3154 14.2613 20.9059 14.8426 19.6564 15.6333C19.5025 15.7307 19.3172 15.7436 19.1883 15.6149C18.2014 14.5866 16.5818 14.4418 15.5662 15.4418C15.5019 15.5052 15.4381 15.5691 15.3749 15.6335C14.4305 16.5963 14.5668 18.1231 15.5212 19.0761C15.6964 19.251 15.7066 19.5105 15.5757 19.7208C14.8289 20.92 14.2754 22.2496 13.9645 23.6932C13.9315 23.8464 13.8191 23.9668 13.6625 23.9668C12.8587 23.9417 12.0298 23.9668 11.2261 23.9668C11.2116 23.9668 11.1993 23.9774 11.1972 23.9917C11.0739 24.8115 11 25.6558 11 26.5C11 27.3177 11.0693 28.1354 11.1857 28.9088C11.1943 28.966 11.2436 29.0081 11.3014 29.0081C12.1554 29.0081 13.0094 29.0081 13.8634 29.0081C13.9072 29.0081 13.9447 29.0391 13.9534 29.082C14.2731 30.6741 14.9082 32.1742 15.7729 33.475C15.8339 33.5668 15.8252 33.6705 15.7472 33.7484C15.1946 34.2751 14.642 34.8269 14.0895 35.3786C13.9882 35.4798 13.9751 35.6397 14.0609 35.7543C14.9991 37.0086 16.1334 38.1275 17.4225 39.0494C17.4558 39.0733 17.5015 39.0694 17.5306 39.0405C18.1083 38.4385 18.7111 37.8617 19.2888 37.2597C19.3596 37.189 19.4658 37.1932 19.5502 37.247C20.8346 38.0644 22.2665 38.6665 23.7867 38.9942C23.9278 39.0247 24.036 39.1218 24.036 39.2662C24.0109 40.0938 24.036 40.9215 24.036 41.7492C24.036 41.7781 24.057 41.8026 24.0856 41.807C24.8738 41.9278 25.6857 42 26.4975 42C27.334 42 28.1222 41.9278 28.9095 41.807C28.938 41.8026 28.959 41.7781 28.959 41.7492C28.959 40.9215 28.959 40.0938 28.9339 39.2662C28.9339 39.1252 29.0448 39.0243 29.1827 38.995C30.7375 38.6649 32.1807 38.0557 33.4517 37.2278C33.5162 37.1858 33.5904 37.1902 33.6499 37.239C33.6688 37.2546 33.6898 37.2688 33.7069 37.2865C34.2767 37.8788 34.8702 38.4474 35.4394 39.0405C35.4684 39.0694 35.5141 39.0733 35.5475 39.0494C36.8365 38.1271 37.9494 37.0076 38.9069 35.7528C38.9935 35.6393 38.9815 35.4795 38.8805 35.3786C38.3279 34.8269 37.8004 34.2751 37.2227 33.7484C37.1557 33.6815 37.1441 33.5534 37.1959 33.4742C38.0595 32.1524 38.6733 30.674 39.0155 29.0818C39.0248 29.0389 39.0626 29.0081 39.1065 29.0081C39.9605 29.0081 40.8145 29.0081 41.6685 29.0081C41.7263 29.0081 41.7754 28.9659 41.7838 28.9087C41.9005 28.1141 41.9699 27.3186 41.9699 26.5C42.0438 25.6643 41.9729 24.8286 41.8518 24.0165ZM30.441 26.8762C30.3405 27.0518 30.1898 27.1772 30.014 27.2273C29.8884 27.2524 27.9795 27.754 26.7487 28.055C26.5756 28.0949 26.4769 28.2779 26.5386 28.4445L28.0297 32.4693L28.0548 32.5194C28.2809 32.8956 28.1804 33.3722 27.8036 33.5979C27.4269 33.8236 26.9496 33.7233 26.7236 33.3471L22.6294 26.9264C22.4787 26.6756 22.4787 26.3746 22.6043 26.1238C22.7048 25.9231 22.8806 25.7977 23.1067 25.7476C23.182 25.7225 25.0909 25.3212 26.3217 25.0453C26.507 25.0057 26.6138 24.8107 26.5475 24.6332L25.0156 20.5307L24.9905 20.4806C24.7644 20.1044 24.8649 19.6278 25.2416 19.4021C25.3672 19.3269 25.5179 19.2767 25.6686 19.2767C25.9198 19.2767 26.1961 19.4021 26.3217 19.6278L30.4159 26.0736C30.4912 26.199 30.5415 26.3495 30.5415 26.5C30.5415 26.6254 30.4912 26.7508 30.441 26.8762Z" fill="white"/>
</svg>
