<svg width="25" height="32" viewBox="0 0 25 32" fill="none" xmlns="http://www.w3.org/2000/svg">
<path d="M12.5 0C9.18479 0 6.00537 1.34856 3.66117 3.74902C1.31696 6.14948 0 9.4052 0 12.8C0 21.4399 11.0156 31.1999 11.4844 31.6159C11.7674 31.8638 12.1276 32 12.5 32C12.8724 32 13.2326 31.8638 13.5156 31.6159C14.0625 31.1999 25 21.4399 25 12.8C25 9.4052 23.683 6.14948 21.3388 3.74902C18.9946 1.34856 15.8152 0 12.5 0ZM12.5 28.2399C9.17188 25.0399 3.125 18.1439 3.125 12.8C3.125 10.2539 4.11272 7.8121 5.87087 6.01176C7.62903 4.21141 10.0136 3.19999 12.5 3.19999C14.9864 3.19999 17.371 4.21141 19.1291 6.01176C20.8873 7.8121 21.875 10.2539 21.875 12.8C21.875 18.1439 15.8281 25.0559 12.5 28.2399ZM12.5 6.39998C11.2639 6.39998 10.0555 6.77533 9.02769 7.47857C7.99988 8.18181 7.1988 9.18135 6.72575 10.3508C6.2527 11.5202 6.12893 12.8071 6.37009 14.0485C6.61125 15.29 7.2065 16.4304 8.08058 17.3254C8.95466 18.2205 10.0683 18.83 11.2807 19.077C12.4931 19.3239 13.7497 19.1972 14.8918 18.7128C16.0338 18.2284 17.0099 17.4081 17.6967 16.3556C18.3834 15.3031 18.75 14.0658 18.75 12.8C18.75 11.1026 18.0915 9.47472 16.9194 8.27449C15.7473 7.07426 14.1576 6.39998 12.5 6.39998ZM12.5 15.9999C11.8819 15.9999 11.2777 15.8123 10.7638 15.4607C10.2499 15.109 9.8494 14.6093 9.61288 14.0245C9.37635 13.4398 9.31447 12.7964 9.43505 12.1757C9.55562 11.5549 9.85325 10.9848 10.2903 10.5372C10.7273 10.0897 11.2842 9.78493 11.8903 9.66146C12.4965 9.53798 13.1249 9.60135 13.6959 9.84355C14.2669 10.0858 14.755 10.4959 15.0983 11.0221C15.4417 11.5484 15.625 12.1671 15.625 12.8C15.625 13.6486 15.2958 14.4626 14.7097 15.0627C14.1237 15.6628 13.3288 15.9999 12.5 15.9999Z" fill="#EC7005"/>
</svg>
