<svg width="54" height="53" viewBox="0 0 54 53" fill="none" xmlns="http://www.w3.org/2000/svg">
<rect y="0.80957" width="54" height="51.4286" rx="10" fill="#53348D"/>
<path d="M24.8597 30.2558H30.1578C30.8892 30.2558 31.4823 29.6626 31.4823 28.9312V23.6331C31.4823 22.9017 30.8892 22.3086 30.1578 22.3086H24.8597C24.1283 22.3086 23.5352 22.9017 23.5352 23.6331V28.9312C23.5352 29.6626 24.1283 30.2558 24.8597 30.2558ZM26.1842 26.2822C26.1842 25.5507 26.7772 24.9577 27.5087 24.9577C28.2403 24.9577 28.8333 25.5507 28.8333 26.2822C28.8333 27.0137 28.2403 27.6067 27.5087 27.6067C26.7772 27.6067 26.1842 27.0137 26.1842 26.2822Z" fill="white"/>
<path d="M15.5882 28.9305C14.8568 28.9305 14.2637 29.5236 14.2637 30.255C14.2637 30.9864 14.8568 31.5795 15.5882 31.5795H15.6189C17.2716 31.5795 18.6353 32.8177 19.804 33.9864C20.9727 35.155 22.2108 36.5187 22.2108 38.1715V38.2022C22.2108 38.9336 22.804 39.5267 23.5354 39.5267C24.2668 39.5267 24.8599 38.9336 24.8599 38.2022C24.8599 36.7391 26.0459 35.5531 27.509 35.5531C28.972 35.5531 30.158 36.7391 30.158 38.2022C30.158 38.9336 30.7511 39.5267 31.4825 39.5267C32.2139 39.5267 32.8071 38.9336 32.8071 38.2022V38.1715C32.8071 36.5187 34.0452 35.1551 35.2139 33.9864C36.3826 32.8178 37.7463 31.5795 39.3991 31.5795H39.4297C40.1611 31.5795 40.7542 30.9864 40.7542 30.255C40.7542 29.5236 40.1611 28.9305 39.4297 28.9305C37.9667 28.9305 36.7807 27.7444 36.7807 26.2814C36.7807 24.8184 37.9667 23.6324 39.4297 23.6324C40.1611 23.6324 40.7542 23.0392 40.7542 22.3078C40.7542 21.5764 40.1611 20.9833 39.4297 20.9833H39.3991C37.7463 20.9833 36.3826 19.7451 35.2139 18.5765C34.0452 17.4078 32.8071 16.0441 32.8071 14.3913V14.3607C32.8071 13.6293 32.2139 13.0361 31.4825 13.0361C30.7511 13.0361 30.158 13.6293 30.158 14.3607C30.158 15.8237 28.972 17.0097 27.509 17.0097C26.0459 17.0097 24.8599 15.8237 24.8599 14.3607C24.8599 13.6293 24.2668 13.0361 23.5354 13.0361C22.804 13.0361 22.2108 13.6293 22.2108 14.3607V14.3913C22.2108 16.0441 20.9727 17.4078 19.804 18.5765C18.6353 19.7451 17.2716 20.9833 15.6189 20.9833H15.5882C14.8568 20.9833 14.2637 21.5764 14.2637 22.3078C14.2637 23.0392 14.8568 23.6324 15.5882 23.6324C17.0512 23.6324 18.2373 24.8184 18.2373 26.2814C18.2373 27.7444 17.0512 28.9305 15.5882 28.9305ZM23.5354 19.6588H31.4825C32.9435 19.6588 34.1316 20.8469 34.1316 22.3078V30.255C34.1316 31.716 32.9435 32.9041 31.4825 32.9041H23.5354C22.0744 32.9041 20.8863 31.716 20.8863 30.255V22.3078C20.8863 20.8469 22.0744 19.6588 23.5354 19.6588Z" fill="white"/>
</svg>
