<svg width="95" height="89" viewBox="0 0 95 89" fill="none" xmlns="http://www.w3.org/2000/svg">
<path d="M52.9464 53.276C52.9464 51.8415 52.5411 50.7015 51.7368 49.8623C50.9451 49.001 49.5993 48.2157 47.6898 47.4968C46.0051 46.8754 44.355 46.164 42.7466 45.3657C41.4535 44.71 40.2516 43.8882 39.1714 42.921C38.1942 41.9973 37.4087 40.8901 36.8598 39.6625C36.3151 38.418 36.0428 36.9392 36.0428 35.2197C36.0428 32.2588 36.9896 29.83 38.8833 27.9363C40.7738 26.0458 43.2881 24.9438 46.4263 24.6272V21.1027C46.4263 20.545 46.6478 20.0102 47.0421 19.6159C47.4365 19.2215 47.9713 19 48.5289 19C49.0866 19 49.6214 19.2215 50.0158 19.6159C50.4101 20.0102 50.6316 20.545 50.6316 21.1027V24.7032C53.7349 25.1402 56.1606 26.4385 57.9149 28.5918C59.0929 30.0327 59.8751 31.7585 60.2583 33.7757C60.5876 35.4952 59.1246 36.9265 57.3766 36.9265H56.1099C54.3619 36.9265 53.0699 35.4572 52.4999 33.8042C52.3122 33.2268 52.0179 32.6897 51.6323 32.2208C50.7709 31.1695 49.6151 30.6438 48.1616 30.6438C46.7239 30.6438 45.6124 31.0555 44.8239 31.8788C44.0323 32.6863 43.6396 33.8073 43.6396 35.2418C43.6396 36.575 44.0259 37.6453 44.7954 38.4497C45.5681 39.2572 46.9963 40.0805 49.0799 40.9197C51.1858 41.762 52.9116 42.56 54.2606 43.3137C55.6096 44.0483 56.7464 44.8907 57.6774 45.8375C58.6053 46.7653 59.3146 47.8325 59.8054 49.0422C60.2963 50.236 60.5401 51.6293 60.5401 53.2222C60.5401 56.202 59.6123 58.6213 57.7534 60.477C55.8978 62.3358 53.3391 63.4315 50.0806 63.764V66.9053C50.0806 67.4596 49.8604 67.9912 49.4685 68.3832C49.0765 68.7751 48.5449 68.9953 47.9906 68.9953C47.4363 68.9953 46.9047 68.7751 46.5128 68.3832C46.1208 67.9912 45.9006 67.4596 45.9006 66.9053V63.7893C42.3096 63.403 39.5229 62.1332 37.5406 59.9798C36.1916 58.482 35.3049 56.6485 34.8806 54.4793C34.5513 52.763 36.0143 51.3285 37.7623 51.3285H39.0289C40.7769 51.3285 42.0753 52.801 42.6801 54.4445C42.9176 55.0968 43.2501 55.6637 43.6649 56.1418C44.6656 57.2438 46.0938 57.7948 47.9494 57.7948C49.4916 57.7948 50.7108 57.3927 51.6038 56.5883C52.4968 55.765 52.9464 54.6598 52.9464 53.276Z" fill="#EE7003"/>
<path d="M47.5392 0C26.4956 0 9.19614 16.1385 7.50936 36.7149H3.29261C1.95857 36.7149 0.75636 37.5229 0.248259 38.761C-0.259843 39.999 0.0266061 41.4221 0.973622 42.3649L8.34803 49.7081C9.63172 50.9862 11.7024 50.9862 12.986 49.7081L20.3605 42.3649C21.3075 41.4221 21.5939 39.999 21.0858 38.761C20.5777 37.5229 19.3755 36.7149 18.0415 36.7149H14.1218C15.7888 19.8335 30.0927 6.60871 47.5392 6.60871C59.6973 6.60871 70.3401 13.0344 76.2354 22.6581C77.1876 24.2128 79.2154 24.6983 80.7646 23.7425C82.3139 22.7868 82.7976 20.7517 81.845 19.197C74.7933 7.68492 62.0631 0 47.5392 0Z" fill="#EE7003"/>
<path d="M86.3272 35.8469C85.0002 34.495 82.8641 34.495 81.5372 35.8469L73.8765 43.649C72.8939 44.6499 72.5954 46.1628 73.1201 47.4801C73.6453 48.7969 74.89 49.6568 76.2719 49.6568H80.3565C78.6243 67.5833 63.7708 81.6446 45.6301 81.6446C32.9897 81.6446 21.9306 74.8115 15.8071 64.5869C14.8189 62.9368 12.7197 62.4247 11.1183 63.4433C9.51696 64.4615 9.01993 66.6246 10.0081 68.2747C17.3341 80.5071 30.5538 88.6663 45.6301 88.6663C67.4719 88.6663 85.4477 71.5296 87.1994 49.6568H91.5924C92.9743 49.6568 94.2191 48.7969 94.7443 47.4801C95.2694 46.1628 94.9705 44.6499 93.9879 43.649L86.3272 35.8469Z" fill="#EE7003"/>
</svg>
