<svg width="56" height="56" viewBox="0 0 56 56" fill="none" xmlns="http://www.w3.org/2000/svg">
<path d="M9.33398 6.99952H23.334V11.6662H9.33398V6.99952ZM2.33398 16.3329H14.0007V20.9995H2.33398V16.3329ZM7.00065 44.3329H18.6673V48.9995H7.00065V44.3329ZM32.0373 24.7562C33.834 25.2929 35.0707 26.5762 35.7006 28.1629L45.664 11.5729C47.1806 9.05286 46.364 5.83286 43.844 4.26952C41.814 3.05619 39.2006 3.31286 37.474 4.94619L29.4706 12.4362C28.5373 13.2995 28.0007 14.5362 28.0007 15.8195V24.9895C28.8407 24.6395 30.334 24.2195 32.0373 24.7562ZM24.7573 28.6295C25.1306 27.4162 25.8773 26.3895 26.834 25.6662H7.65398C4.66732 25.6662 2.33398 27.9995 2.33398 30.9862C2.33398 33.3662 3.89732 35.4429 6.18398 36.0962L16.7073 39.1062C17.944 39.4562 19.274 39.2929 20.394 38.6162L26.6707 34.8595C25.7647 34.132 25.0979 33.1492 24.7568 32.0385C24.4157 30.9277 24.4159 29.7402 24.7573 28.6295ZM51.824 43.4229L46.504 33.8329C45.8597 32.7259 44.8022 31.9202 43.564 31.5929L36.1673 29.7262C36.1673 30.4729 36.1673 31.2662 35.9107 32.0362C35.5532 33.2353 34.8163 34.2861 33.8108 35.0308C32.8052 35.7755 31.5852 36.1739 30.334 36.1662C28.9107 36.1662 28.0007 35.6529 28.0007 35.6529V48.9995C25.434 48.9995 23.334 51.0995 23.334 53.6662H37.334C37.334 51.0995 35.234 48.9995 32.6673 48.9995V39.0129L43.424 49.7695C45.5007 51.8462 48.8606 51.8462 50.9373 49.7695C52.6173 48.0895 52.9906 45.4995 51.824 43.4229ZM29.3073 33.6695C31.1507 34.2295 33.1107 33.2029 33.6707 31.3362C34.2306 29.4929 33.204 27.5329 31.3373 26.9729C29.494 26.4129 27.534 27.4395 26.974 29.3062C26.414 31.1495 27.464 33.1095 29.3073 33.6695Z" fill="white"/>
</svg>
