<svg width="43" height="41" viewBox="0 0 43 41" fill="none" xmlns="http://www.w3.org/2000/svg">
<path fill-rule="evenodd" clip-rule="evenodd" d="M36.8571 40.8983H7.81818C5.74467 40.8983 3.75609 40.0746 2.28989 38.6084C0.823699 37.1422 0 35.1536 0 33.0801V3.91383C0 1.5304 2.35886 0.0181442 4.43403 0.737417C4.73112 0.84017 5.02151 0.989833 5.29849 1.18864L5.6894 1.46786C6.64022 2.14252 7.7777 2.504 8.94355 2.50199C10.1094 2.49999 11.2456 2.13461 12.1941 1.45669C13.5255 0.509158 15.1191 0 16.7532 0C18.3874 0 19.981 0.509158 21.3124 1.45669C22.2609 2.13461 23.3971 2.49999 24.5629 2.50199C25.7288 2.504 26.8663 2.14252 27.8171 1.46786L28.208 1.18864C30.4261 -0.397336 33.5065 1.18864 33.5065 3.91383V20.7944H41.3247C41.769 20.7944 42.1951 20.9709 42.5093 21.2851C42.8235 21.5993 43 22.0254 43 22.4697V34.7554C43 36.3846 42.3528 37.9471 41.2008 39.0991C40.0488 40.2511 38.4863 40.8983 36.8571 40.8983ZM34.0649 24.1451V34.7554C34.0649 35.496 34.3591 36.2062 34.8828 36.7298C35.4064 37.2535 36.1166 37.5476 36.8571 37.5476C37.5977 37.5476 38.3079 37.2535 38.8315 36.7298C39.3552 36.2062 39.6494 35.496 39.6494 34.7554V24.1451H34.0649ZM24.5714 14.6515C24.5714 14.2072 24.3949 13.7811 24.0807 13.4669C23.7666 13.1527 23.3404 12.9762 22.8961 12.9762H9.49351C9.04918 12.9762 8.62306 13.1527 8.30887 13.4669C7.99469 13.7811 7.81818 14.2072 7.81818 14.6515C7.81818 15.0959 7.99469 15.522 8.30887 15.8362C8.62306 16.1504 9.04918 16.3269 9.49351 16.3269H22.8961C23.3404 16.3269 23.7666 16.1504 24.0807 15.8362C24.3949 15.522 24.5714 15.0959 24.5714 14.6515ZM22.3377 21.3528C22.3377 20.9085 22.1612 20.4824 21.847 20.1682C21.5328 19.854 21.1067 19.6775 20.6623 19.6775H9.49351C9.04918 19.6775 8.62306 19.854 8.30887 20.1682C7.99469 20.4824 7.81818 20.9085 7.81818 21.3528C7.81818 21.7972 7.99469 22.2233 8.30887 22.5375C8.62306 22.8517 9.04918 23.0282 9.49351 23.0282H20.6623C21.1067 23.0282 21.5328 22.8517 21.847 22.5375C22.1612 22.2233 22.3377 21.7972 22.3377 21.3528ZM22.8961 26.3788C23.3404 26.3788 23.7666 26.5553 24.0807 26.8695C24.3949 27.1837 24.5714 27.6098 24.5714 28.0541C24.5714 28.4985 24.3949 28.9246 24.0807 29.2388C23.7666 29.553 23.3404 29.7295 22.8961 29.7295H9.49351C9.04918 29.7295 8.62306 29.553 8.30887 29.2388C7.99469 28.9246 7.81818 28.4985 7.81818 28.0541C7.81818 27.6098 7.99469 27.1837 8.30887 26.8695C8.62306 26.5553 9.04918 26.3788 9.49351 26.3788H22.8961Z" fill="#757575"/>
</svg>
