<svg width="71" height="71" viewBox="0 0 71 71" fill="none" xmlns="http://www.w3.org/2000/svg">
<g clip-path="url(#clip0_1527_264)">
<path d="M48.7755 28.63L53.038 19.5L41.6255 18.51C43.2755 19.9125 44.733 21.645 45.888 23.625C46.768 25.1375 47.3455 26.7325 47.758 28.355C46.2455 27.97 44.6505 27.75 43.0005 27.75H41.8455C40.773 25.3011 39.0111 23.2172 36.7747 21.7523C34.5383 20.2874 31.924 19.5049 29.2505 19.5C21.6605 19.5 15.5005 25.66 15.5005 33.25C15.5054 35.9235 16.288 38.5377 17.7529 40.7741C19.2178 43.0105 21.3017 44.7724 23.7505 45.845V47C23.7505 57.6425 32.358 66.25 43.0005 66.25C53.643 66.25 62.2505 57.6425 62.2505 47C62.2505 38.3925 56.5855 31.0775 48.7755 28.63ZM21.0005 33.25C21.0005 28.7125 24.713 25 29.2505 25C32.2205 25 34.833 26.595 36.2905 28.9875C31.0655 30.9125 26.913 35.065 24.988 40.29C23.7745 39.558 22.7701 38.5257 22.0717 37.2926C21.3732 36.0595 21.0043 34.6672 21.0005 33.25ZM43.0005 60.75C35.4105 60.75 29.2505 54.59 29.2505 47C29.2505 39.41 35.4105 33.25 43.0005 33.25C50.5905 33.25 56.7505 39.41 56.7505 47C56.7505 54.59 50.5905 60.75 43.0005 60.75ZM44.3755 47.6875L52.2405 52.335L50.178 55.69L40.2505 49.75V36H44.3755V47.6875ZM29.2505 14C26.9405 14 24.713 14.4125 22.678 15.155L29.2505 5.75L35.823 15.155C33.788 14.4125 31.5605 14 29.2505 14ZM12.613 42.875C13.768 44.91 15.253 46.615 16.8755 48.0175L5.49055 47L10.3305 36.6325C10.7155 38.75 11.458 40.895 12.613 42.875ZM10.303 29.9225L5.43555 19.5L16.8755 18.5375C15.1688 19.9792 13.7183 21.6993 12.5855 23.625C11.3755 25.66 10.688 27.75 10.303 29.9225Z" fill="#ED7004"/>
</g>
<defs>
<clipPath id="clip0_1527_264">
<rect width="67.7231" height="67.7231" fill="white" transform="translate(1.0918 3.27734)"/>
</clipPath>
</defs>
</svg>
