<svg width="65" height="65" viewBox="0 0 65 65" fill="none" xmlns="http://www.w3.org/2000/svg">
<path d="M21.6673 13.542H16.2507C14.8141 13.542 13.4363 14.1127 12.4205 15.1285C11.4047 16.1443 10.834 17.5221 10.834 18.9587V51.4587C10.834 52.8952 11.4047 54.273 12.4205 55.2888C13.4363 56.3046 14.8141 56.8753 16.2507 56.8753H31.68M48.7506 37.917V48.7503H59.584M48.7506 29.792V18.9587C48.7506 17.5221 48.18 16.1443 47.1641 15.1285C46.1483 14.1127 44.7706 13.542 43.334 13.542H37.9173" stroke="#ED7004" stroke-width="5" stroke-linecap="round" stroke-linejoin="round"/>
<path d="M21.668 29.7917H32.5013M21.668 40.625H29.793M21.668 13.5417C21.668 12.1051 22.2387 10.7273 23.2545 9.7115C24.2703 8.69568 25.648 8.125 27.0846 8.125H32.5013C33.9379 8.125 35.3156 8.69568 36.3315 9.7115C37.3473 10.7273 37.918 12.1051 37.918 13.5417C37.918 14.9783 37.3473 16.356 36.3315 17.3718C35.3156 18.3877 33.9379 18.9583 32.5013 18.9583H27.0846C25.648 18.9583 24.2703 18.3877 23.2545 17.3718C22.2387 16.356 21.668 14.9783 21.668 13.5417ZM37.918 48.75C37.918 51.6232 39.0593 54.3787 41.091 56.4103C43.1226 58.442 45.8781 59.5833 48.7513 59.5833C51.6245 59.5833 54.38 58.442 56.4116 56.4103C58.4433 54.3787 59.5846 51.6232 59.5846 48.75C59.5846 45.8768 58.4433 43.1213 56.4116 41.0897C54.38 39.058 51.6245 37.9167 48.7513 37.9167C45.8781 37.9167 43.1226 39.058 41.091 41.0897C39.0593 43.1213 37.918 45.8768 37.918 48.75Z" stroke="#ED7004" stroke-width="5" stroke-linecap="round" stroke-linejoin="round"/>
</svg>
