<svg width="71" height="71" viewBox="0 0 71 71" fill="none" xmlns="http://www.w3.org/2000/svg">
<g clip-path="url(#clip0_1527_245)">
<path d="M34.9543 8.9209C50.5391 8.9209 63.1722 21.5541 63.1722 37.1388C63.1722 52.7236 50.5391 65.3568 34.9543 65.3568C19.3695 65.3568 6.73633 52.7236 6.73633 37.1388C6.73633 21.5541 19.3695 8.9209 34.9543 8.9209ZM34.9543 14.5645C28.9672 14.5645 23.2253 16.9429 18.9918 21.1764C14.7583 25.4099 12.3799 31.1518 12.3799 37.1388C12.3799 43.1259 14.7583 48.8678 18.9918 53.1013C23.2253 57.3348 28.9672 59.7132 34.9543 59.7132C40.9414 59.7132 46.6832 57.3348 50.9168 53.1013C55.1503 48.8678 57.5286 43.1259 57.5286 37.1388C57.5286 31.1518 55.1503 25.4099 50.9168 21.1764C46.6832 16.9429 40.9414 14.5645 34.9543 14.5645ZM34.9543 20.2081C35.6454 20.2082 36.3125 20.4619 36.829 20.9212C37.3455 21.3805 37.6755 22.0133 37.7563 22.6997L37.7761 23.0299V35.9706L45.4147 43.6092C45.9208 44.117 46.2146 44.7984 46.2365 45.515C46.2583 46.2316 46.0066 46.9297 45.5325 47.4674C45.0583 48.0051 44.3973 48.3422 43.6836 48.4102C42.9699 48.4782 42.2571 48.272 41.6899 47.8335L41.4247 47.5992L32.9593 39.1339C32.5207 38.6949 32.239 38.1237 32.1579 37.5085L32.1325 37.1388V23.0299C32.1325 22.2815 32.4298 21.5638 32.959 21.0346C33.4882 20.5054 34.2059 20.2081 34.9543 20.2081Z" fill="#ED7004"/>
</g>
<defs>
<clipPath id="clip0_1527_245">
<rect width="67.7231" height="67.7231" fill="white" transform="translate(1.0918 3.27734)"/>
</clipPath>
</defs>
</svg>
