<svg width="54" height="53" viewBox="0 0 54 53" fill="none" xmlns="http://www.w3.org/2000/svg">
<rect y="0.808594" width="54" height="51.4286" rx="10" fill="#53348D"/>
<path d="M27 11C18.1772 11 11 18.1772 11 27C11 35.8228 18.1772 43 27 43C35.8228 43 43 35.8228 43 27C43 18.1772 35.8228 11 27 11ZM32.0265 31.8875C31.5433 32.5918 30.9102 33.1203 30.0802 33.5147C29.0537 33.9697 28.1725 34.8728 28.1725 35.9956V36.1653C28.1725 36.4936 27.907 36.7583 27.5795 36.7583H25.8049C25.4766 36.7583 25.212 36.4928 25.212 36.1653V34.8826C25.212 34.2638 24.7816 33.7384 24.2187 33.4812C23.3319 33.1194 22.6166 32.5299 22.115 31.7368C21.6117 31.0006 21.3412 30.1405 21.2993 29.1247C21.2859 28.8031 21.5313 28.5301 21.852 28.5083L23.4457 28.3994C23.7665 28.381 24.0378 28.608 24.0755 28.9212C24.1392 29.4546 24.2891 29.896 24.5102 30.1975C24.7589 30.571 25.078 30.8164 25.5604 31.014C26.5821 31.4638 27.8819 31.4646 28.7813 31.1187C29.18 30.9479 29.4622 30.7519 29.6489 30.5107C29.8089 30.2812 29.8876 30.04 29.8876 29.7519C29.8876 29.4814 29.8181 29.2821 29.6498 29.0661C29.5618 28.9488 29.3349 28.7294 28.7378 28.4907C28.4463 28.3944 27.6892 28.1792 26.5369 27.9003C25.1911 27.5645 24.4122 27.3099 23.929 27.0477C23.2096 26.6675 22.6694 26.1935 22.3302 25.6416C21.9827 25.0797 21.8068 24.4382 21.8068 23.7364C21.8068 22.9726 22.0204 22.2448 22.4408 21.5731C22.8763 20.9182 23.5186 20.404 24.3075 20.0724C24.8172 19.841 25.2128 19.3761 25.2128 18.8163V17.7945C25.2128 17.4662 25.4783 17.2015 25.8058 17.2015H27.5804C27.9087 17.2015 28.1733 17.467 28.1733 17.7945V18.1347C28.1733 19.0189 28.8275 19.742 29.6489 20.069C30.5157 20.4585 31.1447 20.9802 31.5936 21.6745C32.0433 22.3294 32.297 23.1158 32.3414 23.9976C32.3573 24.3209 32.1111 24.5973 31.7879 24.6191L30.1565 24.7288C29.8416 24.7505 29.5711 24.5261 29.5283 24.2171C29.4371 23.5479 29.2135 23.0806 28.8441 22.79C28.4245 22.4324 27.8157 22.2657 26.9648 22.2657C26.1315 22.2657 25.4624 22.4274 25.0797 22.7222C24.769 22.9617 24.6232 23.2498 24.6232 23.6283C24.6232 23.9198 24.7145 24.1484 24.8946 24.3092C24.9901 24.3846 25.511 24.7237 27.1951 25.078C28.5862 25.4063 29.6087 25.7053 30.169 25.9465C31.0618 26.3484 31.6999 26.8668 32.0743 27.4899C32.4922 28.1155 32.7024 28.8157 32.7024 29.6062C32.7024 30.4286 32.4754 31.1958 32.0265 31.8875Z" fill="white"/>
</svg>
