<svg width="54" height="53" viewBox="0 0 54 53" fill="none" xmlns="http://www.w3.org/2000/svg">
<rect y="0.808594" width="54" height="51.4286" rx="10" fill="#53348D"/>
<path d="M37.875 29.375H34.625V26.125H37.875M37.875 35.875H34.625V32.625H37.875M28.125 16.375H24.875V13.125H28.125M28.125 22.875H24.875V19.625H28.125M28.125 29.375H24.875V26.125H28.125M28.125 35.875H24.875V32.625H28.125M18.375 22.875H15.125V19.625H18.375M18.375 29.375H15.125V26.125H18.375M18.375 35.875H15.125V32.625H18.375M31.375 22.875V13.125L26.5 8.25L21.625 13.125V16.375H11.875V39.125H41.125V22.875H31.375Z" fill="white"/>
</svg>
