<svg width="24" height="27" viewBox="0 0 24 27" fill="none" xmlns="http://www.w3.org/2000/svg">
<path d="M12.5649 26.5651C13.5101 25.9638 14.4582 25.3653 15.4034 24.7641C15.8313 24.4928 16.2647 24.2243 16.6814 23.9335C17.6714 23.2428 18.5999 22.4569 19.4248 21.5732C21.058 19.8198 22.2997 17.7419 23.0855 15.4795C23.7259 13.631 24 11.6818 24 9.72982V6.00761C24 5.50703 23.6504 5.07077 23.1778 4.92814C22.8366 4.82467 22.4983 4.7184 22.1711 4.58137C22.2605 4.61773 22.35 4.65688 22.4395 4.69323C21.855 4.44434 21.3069 4.12553 20.8035 3.73961L21.0301 3.91579C20.5323 3.52987 20.0848 3.08522 19.6989 2.58743L19.8751 2.81395C19.4892 2.31057 19.1676 1.75965 18.9187 1.17517C18.955 1.26466 18.9942 1.35415 19.0305 1.44364C18.9466 1.24229 18.8683 1.03535 18.8012 0.828401C18.6502 0.355783 18.2279 0.00621456 17.7217 0.00621456H7.68492C7.22349 0.00621456 6.75926 -0.0077682 6.29783 0.00621456H6.27826C5.76928 0.00621456 5.3498 0.355783 5.19879 0.828401C5.13167 1.03814 5.05616 1.24229 4.96947 1.44364C5.00583 1.35415 5.04498 1.26466 5.08133 1.17517C4.83244 1.75965 4.51084 2.30778 4.12491 2.81395L4.3011 2.58743C3.91517 3.08522 3.46772 3.52987 2.96994 3.91579L3.19646 3.73961C2.69308 4.12553 2.14216 4.44434 1.56048 4.69323C1.64996 4.65688 1.73945 4.61773 1.82894 4.58137C1.49895 4.7184 1.16337 4.82467 0.822186 4.92814C0.349569 5.07077 0 5.50703 0 6.00761V9.38025C0 9.97312 0 10.566 0.0419483 11.1589C0.131438 12.3642 0.335586 13.5667 0.673969 14.7273C1.34514 17.0316 2.50851 19.1542 4.0522 20.9859C5.25192 22.4094 6.69774 23.5616 8.26381 24.5543L11.3596 26.5175C11.3848 26.5343 11.4127 26.5511 11.4379 26.5679C11.9329 26.8811 12.6935 26.6881 12.9676 26.1652C13.2584 25.6114 13.0935 24.971 12.5649 24.6354C12.0615 24.3166 11.5581 23.9978 11.0576 23.679C10.4144 23.2707 9.77395 22.8652 9.13074 22.4569C8.68049 22.1717 8.24144 21.8669 7.81636 21.5425L8.04288 21.7186C6.98578 20.8992 6.03496 19.9484 5.21557 18.8913L5.39175 19.1178C4.55838 18.0356 3.86483 16.8498 3.33069 15.5914C3.36705 15.6809 3.4062 15.7704 3.44255 15.8599C2.89723 14.5651 2.52529 13.2059 2.33792 11.8133C2.3519 11.9111 2.36588 12.0118 2.37707 12.1097C2.25682 11.2036 2.23724 10.2975 2.23724 9.38864V6.0188C1.96318 6.37955 1.68912 6.73751 1.41505 7.09827C2.37986 6.80743 3.31391 6.4215 4.1333 5.83143C5.10371 5.13229 5.93148 4.27095 6.54673 3.24182C6.88511 2.67692 7.15637 2.06168 7.35773 1.43525C6.99697 1.70931 6.63901 1.98338 6.27826 2.25744H16.3151C16.7765 2.25744 17.2407 2.26862 17.7022 2.25744H17.7217C17.361 1.98338 17.003 1.70931 16.6423 1.43525C17.3442 3.62495 18.9382 5.5294 21.0301 6.51379C21.5334 6.7515 22.0508 6.93607 22.5849 7.09827C22.3109 6.73751 22.0368 6.37955 21.7628 6.0188V9.98431C21.7628 10.6946 21.7152 11.405 21.6229 12.1097C21.6369 12.0118 21.6509 11.9111 21.6621 11.8133C21.4719 13.2031 21.1 14.5651 20.5574 15.8599C20.5938 15.7704 20.633 15.6809 20.6693 15.5914C20.1352 16.8498 19.4416 18.0356 18.6082 19.1178L18.7844 18.8913C17.965 19.9484 17.0142 20.8992 15.9571 21.7186L16.1836 21.5425C15.5572 22.0263 14.8916 22.4429 14.2261 22.868C13.4878 23.3378 12.7495 23.8049 12.0112 24.2747C11.821 24.3949 11.6281 24.518 11.4379 24.6382C11.1946 24.792 11.0016 25.0242 10.9233 25.3066C10.8506 25.5751 10.8842 25.9302 11.0352 26.1679C11.354 26.6601 12.0364 26.9006 12.5649 26.5651Z" fill="#ED7004"/>
<path d="M6.30043 13.3064L9.17249 16.1785L9.58078 16.5868C10.0087 17.0147 10.7358 17.0147 11.1636 16.5868L13.3813 14.3691L16.891 10.8594L17.6992 10.0512C18.1131 9.63736 18.1438 8.87669 17.6992 8.4684C17.2517 8.0573 16.5582 8.02654 16.1163 8.4684L13.8987 10.6861L10.389 14.1957L9.58078 15.0039H11.1636L8.29157 12.1319L7.88328 11.7236C7.46939 11.3097 6.70872 11.2789 6.30043 11.7236C5.88934 12.171 5.85857 12.8618 6.30043 13.3064Z" fill="#ED7004"/>
</svg>
