<svg width="89" height="89" viewBox="0 0 89 89" fill="none" xmlns="http://www.w3.org/2000/svg">
<path d="M44.5 0C35.6987 0 27.0951 2.60988 19.7771 7.4996C12.4592 12.3893 6.75548 19.3393 3.38738 27.4706C0.0192811 35.6019 -0.861967 44.5494 0.855075 53.1815C2.57212 61.8137 6.81033 69.7428 13.0338 75.9662C19.2572 82.1897 27.1863 86.4279 35.8185 88.1449C44.4506 89.862 53.3981 88.9807 61.5294 85.6126C69.6607 82.2445 76.6107 76.5408 81.5004 69.2229C86.3901 61.9049 89 53.3013 89 44.5C89 38.6562 87.849 32.8696 85.6126 27.4706C83.3763 22.0716 80.0985 17.166 75.9663 13.0337C71.8341 8.90154 66.9284 5.62369 61.5294 3.38736C56.1304 1.15103 50.3438 0 44.5 0ZM44.5 80.1C37.459 80.1 30.5761 78.0121 24.7217 74.1003C18.8673 70.1885 14.3044 64.6286 11.6099 58.1235C8.91543 51.6185 8.21043 44.4605 9.58406 37.5548C10.9577 30.6491 14.3483 24.3057 19.327 19.327C24.3058 14.3482 30.6491 10.9577 37.5548 9.58404C44.4605 8.21041 51.6185 8.91541 58.1235 11.6099C64.6286 14.3044 70.1885 18.8673 74.1003 24.7217C78.0121 30.5761 80.1 37.459 80.1 44.5C80.1 53.9417 76.3493 62.9967 69.673 69.673C62.9967 76.3493 53.9417 80.1 44.5 80.1Z" fill="#ED7004"/>
<path d="M44.4988 66.7506C46.9565 66.7506 48.9488 64.7583 48.9488 62.3006C48.9488 59.8429 46.9565 57.8506 44.4988 57.8506C42.0412 57.8506 40.0488 59.8429 40.0488 62.3006C40.0488 64.7583 42.0412 66.7506 44.4988 66.7506Z" fill="#ED7004"/>
<path d="M44.4988 22.252C43.3186 22.252 42.1867 22.7208 41.3522 23.5553C40.5177 24.3899 40.0488 25.5217 40.0488 26.702V48.952C40.0488 50.1322 40.5177 51.264 41.3522 52.0986C42.1867 52.9331 43.3186 53.4019 44.4988 53.4019C45.679 53.4019 46.8109 52.9331 47.6455 52.0986C48.48 51.264 48.9488 50.1322 48.9488 48.952V26.702C48.9488 25.5217 48.48 24.3899 47.6455 23.5553C46.8109 22.7208 45.679 22.252 44.4988 22.252Z" fill="#ED7004"/>
</svg>
