<svg width="36" height="35" viewBox="0 0 36 35" fill="none" xmlns="http://www.w3.org/2000/svg">
<path d="M1.62305 30.6253L17.6225 2.91699L33.6219 30.6253H1.62305ZM17.6225 26.2503C18.0346 26.2503 18.3803 26.1103 18.6596 25.8303C18.9388 25.5503 19.078 25.2042 19.077 24.792C19.077 24.3788 18.9374 24.0322 18.6581 23.7522C18.3788 23.4722 18.0336 23.3327 17.6225 23.3337C17.2104 23.3337 16.8647 23.4737 16.5854 23.7537C16.3062 24.0337 16.167 24.3798 16.168 24.792C16.168 25.2052 16.3076 25.5518 16.5869 25.8318C16.8662 26.1118 17.2114 26.2513 17.6225 26.2503ZM16.168 21.8753H19.077V14.5837H16.168V21.8753Z" fill="white"/>
</svg>
