<svg width="32" height="26" viewBox="0 0 32 26" fill="none" xmlns="http://www.w3.org/2000/svg">
<path d="M2.2829 26C0.81512 26 -0.0799978 24.3858 0.697383 23.1408L14.1853 1.53928C14.9173 0.366987 16.6243 0.366988 17.3563 1.53928L30.8442 23.1408C31.6216 24.3858 30.7265 26 29.2587 26H2.2829ZM15.7708 21.7368C16.205 21.7368 16.5693 21.6004 16.8636 21.3276C17.1578 21.0547 17.3044 20.7175 17.3034 20.3158C17.3034 19.9132 17.1563 19.5754 16.862 19.3026C16.5678 19.0297 16.204 18.8938 15.7708 18.8947C15.3366 18.8947 14.9723 19.0312 14.6781 19.304C14.3838 19.5768 14.2372 19.9141 14.2382 20.3158C14.2382 20.7184 14.3853 21.0562 14.6796 21.329C14.9738 21.6018 15.3376 21.7378 15.7708 21.7368ZM14.2382 15.9411C14.2382 16.7875 14.9244 17.4737 15.7708 17.4737C16.6172 17.4737 17.3034 16.7875 17.3034 15.9411V11.901C17.3034 11.0546 16.6172 10.3684 15.7708 10.3684C14.9244 10.3684 14.2382 11.0546 14.2382 11.901V15.9411Z" fill="#E60505"/>
</svg>
